# xmcd
#
# Track frame offsets: 
#        150
#        14816
#        25407
#        35451
#        47206
#        60403
#        70653
#        80683
#        96039
#        106885
#        118678
#        130241
#        142612
#        154983
#        167166
#        169022
#        181780
#        194391
#        207615
#        220592
#        233503
#        247449
#        261541
#        272174
#        282595
#        293402
#        309841
#
# Disc length: 4320 seconds
#
# Revision: 0
# Processed by: cddbd v1.5.2PL0 Copyright (c) Steve Scherf et al.
# Submitted via: ExactAudioCopy v0.95b3
#
DISCID=8e10de1b
DTITLE=The Monkees - The Monkees Complete 23 of 28 
DYEAR=1900
DGENRE=
TTITLE0=Carlisle Wheeling (alt. version)
TTITLE1=Hollywood
TTITLE2=Hollywood (alt. mix)
TTITLE3=How Insensitive
TTITLE4=Look Down
TTITLE5=Me Without You (alt. mix)
TTITLE6=Nine Times Blue
TTITLE7=Propinquity (I've Just Begun to Care)
TTITLE8=Smile
TTITLE9=Some Of Shelley's Blues
TTITLE10=Some Of Shelley's Blues (alt. mix)
TTITLE11=Someday Man
TTITLE12=Someday Man (mono)
TTITLE13=Someday Man (alt. mix)
TTITLE14=Someday Man (intro)
TTITLE15=St. Matthew
TTITLE16=St. Matthew (alt. mix)
TTITLE17=The Crippled Lion
TTITLE18=The Crippled Lion (alt. mix)
TTITLE19=Through The Looking Glass (alt. mix)
TTITLE20=While I Cry (alt. mix 1 from acetate)
TTITLE21=While I Cry (alt. mix 2 from tape)
TTITLE22=You And I (alt. mix 1)
TTITLE23=You And I (alt. mix 2)
TTITLE24=I'm A Believer (Joey Bishop Show 6-6-69)
TTITLE25=Someday Man (Joey Bishop Show 6-6-69)
TTITLE26=Listen To The Band (Joey Bishop Show 6-6-69)
EXTD=
EXTT0=
EXTT1=
EXTT2=
EXTT3=
EXTT4=
EXTT5=
EXTT6=
EXTT7=
EXTT8=
EXTT9=
EXTT10=
EXTT11=
EXTT12=
EXTT13=
EXTT14=
EXTT15=
EXTT16=
EXTT17=
EXTT18=
EXTT19=
EXTT20=
EXTT21=
EXTT22=
EXTT23=
EXTT24=
EXTT25=
EXTT26=
PLAYORDER=
